<svg width="250" height="250" viewBox="0 0 250 250" fill="none" xmlns="http://www.w3.org/2000/svg">
<mask id="mask0_47_11" style="mask-type:alpha" maskUnits="userSpaceOnUse" x="0" y="0" width="250" height="250">
<rect width="250" height="250" rx="12" fill="#F2F0F4"/>
</mask>
<g mask="url(#mask0_47_11)">
<path opacity="0.02" d="M624.908 452.419C670.236 479.471 671.563 532.991 666.561 556.37L606.314 903.006C605.179 909.535 599.293 912.777 593.168 910.247L-184.691 588.922C-190.816 586.392 -194.862 579.048 -193.727 572.518L-133.48 225.883C-130.23 201.78 -111.723 156.453 -63.6943 167.965C-3.65904 182.355 0.671926 147.711 14.3907 123.885C28.1095 100.059 47.0848 78.4036 93.2236 120.884C139.362 163.365 186.982 190.843 233.306 154.462C270.365 125.357 300.083 132.602 310.71 136.992C321.337 141.382 349.423 158.015 372.078 211.787C400.396 279.002 450.548 291.912 504.283 290.688C558.018 289.464 567.428 322.845 571.581 354.054C575.734 385.263 568.249 418.604 624.908 452.419Z" fill="black"/>
</g>
<path d="M219.242 23.3219C219.828 22.9831 220.551 22.9831 221.138 23.3219V23.3219C221.725 23.6606 222.086 24.2867 222.086 24.9642V24.9642C222.086 25.6418 221.725 26.2678 221.138 26.6066V26.6066C220.551 26.9454 219.828 26.9454 219.242 26.6066V26.6066C218.655 26.2678 218.293 25.6418 218.293 24.9642V24.9642C218.293 24.2867 218.655 23.6606 219.242 23.3219V23.3219Z" fill="#F49F88"/>
<path d="M226 11.5967C227.712 10.6087 229.82 10.6087 231.532 11.5967V11.5967C233.243 12.5848 234.297 14.4109 234.297 16.387V16.387C234.297 18.3631 233.243 20.1892 231.532 21.1772V21.1772C229.82 22.1653 227.712 22.1653 226 21.1772V21.1772C224.289 20.1892 223.235 18.3631 223.235 16.387V16.387C223.235 14.4109 224.289 12.5848 226 11.5967V11.5967Z" fill="#D38CE7"/>
<path d="M31.9136 234.896C32.4837 233.909 33.7464 233.57 34.7339 234.14V234.14C35.7214 234.71 36.0597 235.973 35.4896 236.961V236.961C34.9194 237.948 33.6568 238.286 32.6693 237.716V237.716C31.6818 237.146 31.3435 235.884 31.9136 234.896V234.896Z" fill="#CA87FF"/>
<path d="M17.0619 14.3559C18.0382 12.6649 20.2005 12.0855 21.8915 13.0618V13.0618C23.5825 14.0381 24.1619 16.2004 23.1856 17.8914V17.8914C22.2093 19.5825 20.047 20.1618 18.356 19.1855V19.1855C16.6649 18.2092 16.0856 16.0469 17.0619 14.3559V14.3559Z" fill="#F6A081"/>
<path d="M21.47 221.549C22.8953 219.08 26.052 218.234 28.5207 219.659V219.659C30.9894 221.085 31.8352 224.241 30.4099 226.71V226.71C28.9846 229.179 25.8279 230.025 23.3592 228.599V228.599C20.8905 227.174 20.0447 224.017 21.47 221.549V221.549Z" fill="#E798AE"/>
</svg>
